# xmcd
#
# Track frame offsets: 
#        150
#        3220
#        8897
#        22494
#        35800
#        44107
#        53767
#        62040
#        69100
#        74162
#        82404
#        97972
#        107065
#        113070
#        125837
#        132165
#        137587
#        150800
#        155845
#        168432
#        173747
#        177332
#        177960
#        178592
#
# Disc length: 2389 seconds
#
# Revision: 2
# Processed by: cddbd v1.5.2PL0 Copyright (c) Steve Scherf et al.
# Submitted via: ExactAudioCopy v1.3
#
DISCID=55095318
DTITLE=服部隆之 - I.Q FINAL PERFECT MUSIC FILE
DYEAR=1999
DGENRE=Soundtrack
TTITLE0=オープニング・コーラス
TTITLE1=前兆
TTITLE2=第1の潮流
TTITLE3=黄銅
TTITLE4=深層
TTITLE5=危機の訪れ
TTITLE6=勇気と希望
TTITLE7=エンディング・コーラス ~ 世界のはじまり
TTITLE8=大陸移動
TTITLE9=4つの塔
TTITLE10=第2の潮流
TTITLE11=未来と羅針
TTITLE12=危機回避
TTITLE13=セオリー
TTITLE14=最期の戦い
TTITLE15=黒軍の行進
TTITLE16=ファラオの秘宝
TTITLE17=テクトニクス ~ 開かれた門
TTITLE18=癒やしと光
TTITLE19=森の眠りの歌
TTITLE20=モーガンのテーマ
TTITLE21=短い祝福
TTITLE22=敗者を讃えて
TTITLE23=一時的な葬送
EXTD=YEAR: 1999
EXTT0=
EXTT1=
EXTT2=
EXTT3=
EXTT4=
EXTT5=
EXTT6=
EXTT7=
EXTT8=
EXTT9=
EXTT10=
EXTT11=
EXTT12=
EXTT13=
EXTT14=
EXTT15=
EXTT16=
EXTT17=
EXTT18=
EXTT19=
EXTT20=
EXTT21=
EXTT22=
EXTT23=
PLAYORDER=
